<svg xmlns="http://www.w3.org/2000/svg" xmlns:xlink="http://www.w3.org/1999/xlink" version="1.1" data-diagram-type="SEQUENCE" style="width:1258px;height:774px;background:#FFFFFF;" width="1258px" height="774px" viewBox="0 0 1258 774" zoomAndPan="magnify" preserveAspectRatio="none" contentStyleType="text/css"><?plantuml 1.2026.8?><defs/><g font-family="sans-serif" lengthAdjust="spacing"><g class="title" data-source-line="1"><text x="295.508" y="37.838" fill="#1F2A38" font-size="22" textLength="665.79" font-weight="700" font-family="Helvetica">Diagrama de Sequência — Votação e Atualização de Reputação</text></g><rect x="80.234" y="275.688" width="879.51" height="386.57" fill="none" style="stroke:#000;stroke-width:1.5;" rx="6" ry="6"/><g><title>usuarioVotante . Usuario</title><rect x="92.734" y="136.281" width="8" height="549.977" fill="#000" fill-opacity="0"/><line x1="96.234" y1="136.281" x2="96.234" y2="686.258" style="stroke:#90A4AE;stroke-width:0.5;stroke-dasharray:5,5;"/></g><g><title>controleVotacao</title><rect x="250.813" y="136.281" width="8" height="549.977" fill="#000" fill-opacity="0"/><line x1="254.313" y1="136.281" x2="254.313" y2="686.258" style="stroke:#90A4AE;stroke-width:0.5;stroke-dasharray:5,5;"/></g><g><title></title><rect x="249.313" y="202.984" width="10" height="473.273" fill="#FFF" style="stroke:#181818;stroke-width:1;"/></g><g><title>conteudo . ConteudoVotavel</title><rect x="424.934" y="136.281" width="8" height="549.977" fill="#000" fill-opacity="0"/><line x1="428.434" y1="136.281" x2="428.434" y2="686.258" style="stroke:#90A4AE;stroke-width:0.5;stroke-dasharray:5,5;"/></g><g><title></title><rect x="423.434" y="233.336" width="10" height="30.352" fill="#FFF" style="stroke:#181818;stroke-width:1;"/></g><g><title>voto . Voto</title><rect x="580.758" y="304.039" width="8" height="382.219" fill="#000" fill-opacity="0"/><line x1="584.258" y1="304.039" x2="584.258" y2="686.258" style="stroke:#90A4AE;stroke-width:0.5;stroke-dasharray:5,5;"/></g><g><title>evento . EventoReputacao</title><rect x="729.213" y="367" width="8" height="319.258" fill="#000" fill-opacity="0"/><line x1="732.713" y1="367" x2="732.713" y2="686.258" style="stroke:#90A4AE;stroke-width:0.5;stroke-dasharray:5,5;"/></g><g><title>reputacaoAutor . Reputacao</title><rect x="935.244" y="136.281" width="8" height="549.977" fill="#000" fill-opacity="0"/><line x1="938.744" y1="136.281" x2="938.744" y2="686.258" style="stroke:#90A4AE;stroke-width:0.5;stroke-dasharray:5,5;"/></g><g><title></title><rect x="933.744" y="421.961" width="10" height="91.055" fill="#FFF" style="stroke:#181818;stroke-width:1;"/></g><g><title></title><rect x="933.744" y="543.367" width="10" height="30.352" fill="#FFF" style="stroke:#181818;stroke-width:1;"/></g><g><title>usuarioAutor . Usuario</title><rect x="1125.596" y="136.281" width="8" height="549.977" fill="#000" fill-opacity="0"/><line x1="1129.096" y1="136.281" x2="1129.096" y2="686.258" style="stroke:#90A4AE;stroke-width:0.5;stroke-dasharray:5,5;"/></g><text x="10" y="133.205" fill="#1F2A38" font-size="14" textLength="166.469" font-weight="700" font-family="Helvetica">usuarioVotante : Usuario</text><ellipse cx="96.234" cy="67.172" rx="8" ry="8" fill="#F5F6FA" style="stroke:#1F2A38;stroke-width:0.5;"/><path d="M96.234,75.172 L96.234,102.172 M83.234,83.172 L109.234,83.172 M96.234,102.172 L83.234,117.172 M96.234,102.172 L109.234,117.172" style="stroke:#1F2A38;stroke-width:0.5;" fill="none"/><rect x="192.469" y="103.672" width="123.689" height="31.609" fill="#F5F6FA" style="stroke:#1F2A38;stroke-width:0.5;" rx="6" ry="6"/><text x="199.469" y="125.205" fill="#1F2A38" font-size="14" textLength="109.689" font-weight="700" font-family="Helvetica">controleVotacao</text><rect x="326.158" y="103.672" width="204.552" height="31.609" fill="#F5F6FA" style="stroke:#1F2A38;stroke-width:0.5;" rx="6" ry="6"/><text x="333.158" y="125.205" fill="#1F2A38" font-size="14" textLength="190.552" font-weight="700" font-family="Helvetica">conteudo : ConteudoVotavel</text><rect x="837.62" y="103.672" width="202.248" height="31.609" fill="#F5F6FA" style="stroke:#1F2A38;stroke-width:0.5;" rx="6" ry="6"/><text x="844.62" y="125.205" fill="#1F2A38" font-size="14" textLength="188.248" font-weight="700" font-family="Helvetica">reputacaoAutor : Reputacao</text><text x="1049.868" y="133.205" fill="#1F2A38" font-size="14" textLength="152.455" font-weight="700" font-family="Helvetica">usuarioAutor : Usuario</text><ellipse cx="1129.096" cy="67.172" rx="8" ry="8" fill="#F5F6FA" style="stroke:#1F2A38;stroke-width:0.5;"/><path d="M1129.096,75.172 L1129.096,102.172 M1116.096,83.172 L1142.096,83.172 M1129.096,102.172 L1116.096,117.172 M1129.096,102.172 L1142.096,117.172" style="stroke:#1F2A38;stroke-width:0.5;" fill="none"/><text x="10" y="700.791" fill="#1F2A38" font-size="14" textLength="166.469" font-weight="700" font-family="Helvetica">usuarioVotante : Usuario</text><ellipse cx="96.234" cy="712.367" rx="8" ry="8" fill="#F5F6FA" style="stroke:#1F2A38;stroke-width:0.5;"/><path d="M96.234,720.367 L96.234,747.367 M83.234,728.367 L109.234,728.367 M96.234,747.367 L83.234,762.367 M96.234,747.367 L109.234,762.367" style="stroke:#1F2A38;stroke-width:0.5;" fill="none"/><rect x="192.469" y="686.258" width="123.689" height="31.609" fill="#F5F6FA" style="stroke:#1F2A38;stroke-width:0.5;" rx="6" ry="6"/><text x="199.469" y="707.791" fill="#1F2A38" font-size="14" textLength="109.689" font-weight="700" font-family="Helvetica">controleVotacao</text><rect x="326.158" y="686.258" width="204.552" height="31.609" fill="#F5F6FA" style="stroke:#1F2A38;stroke-width:0.5;" rx="6" ry="6"/><text x="333.158" y="707.791" fill="#1F2A38" font-size="14" textLength="190.552" font-weight="700" font-family="Helvetica">conteudo : ConteudoVotavel</text><rect x="540.71" y="686.258" width="87.097" height="31.609" fill="#F5F6FA" style="stroke:#1F2A38;stroke-width:0.5;" rx="6" ry="6"/><text x="547.71" y="707.791" fill="#1F2A38" font-size="14" textLength="73.097" font-weight="700" font-family="Helvetica">voto : Voto</text><rect x="637.807" y="686.258" width="189.813" height="31.609" fill="#F5F6FA" style="stroke:#1F2A38;stroke-width:0.5;" rx="6" ry="6"/><text x="644.807" y="707.791" fill="#1F2A38" font-size="14" textLength="175.813" font-weight="700" font-family="Helvetica">evento : EventoReputacao</text><rect x="837.62" y="686.258" width="202.248" height="31.609" fill="#F5F6FA" style="stroke:#1F2A38;stroke-width:0.5;" rx="6" ry="6"/><text x="844.62" y="707.791" fill="#1F2A38" font-size="14" textLength="188.248" font-weight="700" font-family="Helvetica">reputacaoAutor : Reputacao</text><text x="1049.868" y="700.791" fill="#1F2A38" font-size="14" textLength="152.455" font-weight="700" font-family="Helvetica">usuarioAutor : Usuario</text><ellipse cx="1129.096" cy="712.367" rx="8" ry="8" fill="#F5F6FA" style="stroke:#1F2A38;stroke-width:0.5;"/><path d="M1129.096,720.367 L1129.096,747.367 M1116.096,728.367 L1142.096,728.367 M1129.096,747.367 L1116.096,762.367 M1129.096,747.367 L1142.096,762.367" style="stroke:#1F2A38;stroke-width:0.5;" fill="none"/><path d="M825.033,155.281 L825.033,169.281 A6,6 0 0 0 831.033,175.281 L1236.033,175.281 A6,6 0 0 0 1242.033,169.281 L1242.033,159.281 L1232.033,149.281 L831.033,149.281 A6,6 0 0 0 825.033,155.281" style="stroke:#181818;stroke-width:0.5;" fill="#FEFFDD"/><path d="M1232.033,149.281 L1232.033,156.281 A3,3 0 0 0 1235.033,159.281 L1242.033,159.281 L1232.033,149.281" style="stroke:#181818;stroke-width:0.5;" fill="#FEFFDD"/><text x="831.033" y="167.776" fill="#000" font-size="13" textLength="396.773" font-family="Helvetica">reputacaoAutor pertence ao usuarioAutor, autor do conteúdo votado.</text><polygon points="237.313,198.984,247.313,202.984,237.313,206.984,241.313,202.984" fill="#E65100" style="stroke:#E65100;stroke-width:1;stroke-linejoin:miter;stroke-miterlimit:10;"/><line x1="96.234" y1="202.984" x2="243.313" y2="202.984" style="stroke:#E65100;stroke-width:1;"/><text x="113.157" y="198.128" fill="#33414D" font-size="13" textLength="119.234" font-family="Helvetica">votar(conteudo, tipo)</text><polygon points="411.434,229.336,421.434,233.336,411.434,237.336,415.434,233.336" fill="#E65100" style="stroke:#E65100;stroke-width:1;stroke-linejoin:miter;stroke-miterlimit:10;"/><line x1="259.313" y1="233.336" x2="417.434" y2="233.336" style="stroke:#E65100;stroke-width:1;"/><text x="278.513" y="228.479" fill="#33414D" font-size="13" textLength="125.722" font-family="Helvetica">verificarVotabilidade()</text><polygon points="270.313,259.688,260.313,263.688,270.313,267.688,266.313,263.688" fill="#1565C0" style="stroke:#1565C0;stroke-width:1;stroke-linejoin:miter;stroke-miterlimit:10;"/><line x1="264.313" y1="263.688" x2="422.434" y2="263.688" style="stroke:#1565C0;stroke-width:1;stroke-dasharray:2,2;"/><text x="286.089" y="258.831" fill="#33414D" font-size="13" textLength="110.57" font-family="Helvetica">elegível / inelegível</text><path d="M86.234,275.688 L140.405,275.688 L140.405,284.039 L130.405,294.039 L80.234,294.039 L80.234,281.688 A6,6 0 0 1 86.234,275.688" style="stroke:#000;stroke-width:1.5;" fill="#EEE"/><rect x="80.234" y="275.688" width="879.51" height="386.57" fill="none" style="stroke:#000;stroke-width:1.5;" rx="6" ry="6"/><text x="95.234" y="290.183" fill="#000" font-size="13" textLength="15.171" font-weight="700" font-family="Helvetica">alt</text><text x="155.405" y="289.106" fill="#000" font-size="11" textLength="100.235" font-weight="700" font-family="Helvetica">[conteúdo elegível]</text><rect x="540.71" y="304.039" width="87.097" height="31.609" fill="#F5F6FA" style="stroke:#1F2A38;stroke-width:0.5;" rx="6" ry="6"/><text x="547.71" y="325.572" fill="#1F2A38" font-size="14" textLength="73.097" font-weight="700" font-family="Helvetica">voto : Voto</text><polygon points="528.71,322.391,538.71,326.391,528.71,330.391,532.71,326.391" fill="#2E7D32" style="stroke:#2E7D32;stroke-width:1;stroke-linejoin:miter;stroke-miterlimit:10;"/><line x1="259.313" y1="326.391" x2="534.71" y2="326.391" style="stroke:#2E7D32;stroke-width:1;stroke-dasharray:2,2;"/><text x="328.842" y="321.534" fill="#33414D" font-size="13" textLength="142.34" font-family="Helvetica">«create»(tipo, criadoEm)</text><polygon points="416.434,355,426.434,359,416.434,363,420.434,359" fill="#E65100" style="stroke:#E65100;stroke-width:1;stroke-linejoin:miter;stroke-miterlimit:10;"/><line x1="259.313" y1="359" x2="422.434" y2="359" style="stroke:#E65100;stroke-width:1;"/><text x="290.049" y="354.144" fill="#33414D" font-size="13" textLength="107.65" font-family="Helvetica">registrarVoto(voto)</text><rect x="637.807" y="367" width="189.813" height="31.609" fill="#F5F6FA" style="stroke:#1F2A38;stroke-width:0.5;" rx="6" ry="6"/><text x="644.807" y="388.533" fill="#1F2A38" font-size="14" textLength="175.813" font-weight="700" font-family="Helvetica">evento : EventoReputacao</text><polygon points="625.807,385.352,635.807,389.352,625.807,393.352,629.807,389.352" fill="#2E7D32" style="stroke:#2E7D32;stroke-width:1;stroke-linejoin:miter;stroke-miterlimit:10;"/><line x1="259.313" y1="389.352" x2="631.807" y2="389.352" style="stroke:#2E7D32;stroke-width:1;stroke-dasharray:2,2;"/><text x="322.651" y="384.495" fill="#33414D" font-size="13" textLength="251.818" font-family="Helvetica">«create»(tipo = Voto, variacao, ocorridoEm)</text><polygon points="921.744,417.961,931.744,421.961,921.744,425.961,925.744,421.961" fill="#E65100" style="stroke:#E65100;stroke-width:1;stroke-linejoin:miter;stroke-miterlimit:10;"/><line x1="259.313" y1="421.961" x2="927.744" y2="421.961" style="stroke:#E65100;stroke-width:1;"/><text x="548.845" y="417.104" fill="#33414D" font-size="13" textLength="95.367" font-family="Helvetica">registrar(evento)</text><polygon points="743.713,448.313,733.713,452.313,743.713,456.313,739.713,452.313" fill="#E65100" style="stroke:#E65100;stroke-width:1;stroke-linejoin:miter;stroke-miterlimit:10;"/><line x1="737.713" y1="452.313" x2="932.744" y2="452.313" style="stroke:#E65100;stroke-width:1;"/><text x="809.752" y="447.456" fill="#33414D" font-size="13" textLength="46.954" font-family="Helvetica">aplicar()</text><polygon points="921.744,478.664,931.744,482.664,921.744,486.664,925.744,482.664" fill="#1565C0" style="stroke:#1565C0;stroke-width:1;stroke-linejoin:miter;stroke-miterlimit:10;"/><line x1="732.713" y1="482.664" x2="927.744" y2="482.664" style="stroke:#1565C0;stroke-width:1;stroke-dasharray:2,2;"/><text x="782.641" y="477.808" fill="#33414D" font-size="13" textLength="101.175" font-family="Helvetica">variação aplicada</text><polygon points="270.313,509.016,260.313,513.016,270.313,517.016,266.313,513.016" fill="#1565C0" style="stroke:#1565C0;stroke-width:1;stroke-linejoin:miter;stroke-miterlimit:10;"/><line x1="264.313" y1="513.016" x2="932.744" y2="513.016" style="stroke:#1565C0;stroke-width:1;stroke-dasharray:2,2;"/><text x="546.303" y="508.159" fill="#33414D" font-size="13" textLength="100.452" font-family="Helvetica">evento registrado</text><polygon points="921.744,539.367,931.744,543.367,921.744,547.367,925.744,543.367" fill="#E65100" style="stroke:#E65100;stroke-width:1;stroke-linejoin:miter;stroke-miterlimit:10;"/><line x1="259.313" y1="543.367" x2="927.744" y2="543.367" style="stroke:#E65100;stroke-width:1;"/><text x="549.201" y="538.511" fill="#33414D" font-size="13" textLength="94.656" font-family="Helvetica">consultarSaldo()</text><polygon points="270.313,569.719,260.313,573.719,270.313,577.719,266.313,573.719" fill="#1565C0" style="stroke:#1565C0;stroke-width:1;stroke-linejoin:miter;stroke-miterlimit:10;"/><line x1="264.313" y1="573.719" x2="932.744" y2="573.719" style="stroke:#1565C0;stroke-width:1;stroke-dasharray:2,2;"/><text x="551.353" y="568.862" fill="#33414D" font-size="13" textLength="90.353" font-family="Helvetica">pontuacaoAtual</text><polygon points="107.234,600.07,97.234,604.07,107.234,608.07,103.234,604.07" fill="#1565C0" style="stroke:#1565C0;stroke-width:1;stroke-linejoin:miter;stroke-miterlimit:10;"/><line x1="101.234" y1="604.07" x2="248.313" y2="604.07" style="stroke:#1565C0;stroke-width:1;stroke-dasharray:2,2;"/><text x="129.778" y="599.214" fill="#33414D" font-size="13" textLength="85.992" font-family="Helvetica">voto registrado</text><line x1="80.234" y1="613.07" x2="959.744" y2="613.07" style="stroke:#000;stroke-width:1;stroke-dasharray:2,2;"/><text x="85.234" y="626.489" fill="#000" font-size="11" textLength="110.011" font-weight="700" font-family="Helvetica">[conteúdo inelegível]</text><polygon points="107.234,650.258,97.234,654.258,107.234,658.258,103.234,654.258" fill="#1565C0" style="stroke:#1565C0;stroke-width:1;stroke-linejoin:miter;stroke-miterlimit:10;"/><line x1="101.234" y1="654.258" x2="248.313" y2="654.258" style="stroke:#1565C0;stroke-width:1;stroke-dasharray:2,2;"/><text x="108.469" y="649.401" fill="#33414D" font-size="13" textLength="128.61" font-family="Helvetica">voto rejeitado (motivo)</text><?plantuml-src ZLNDRXCn4BxxAKRjPIkba7_Qg5JQDeaub0fHmQNYuAudmNIpNhpUL1GXyH2y0GSa95w0Qzw49s7i_OatFr9pSZpVp7pppSpQI1CZZ2MVQxxW811ky7E--fr4aiE_xp_WlJ9yzMlrKm52Q78UoyVoFs7VOfgNPiQoUvcadC90zf4BzI2JESnudA5dqIfFHAHqWXewNSyWSCRps4nLOgxv0k4LnaiqCk9-M6A6IOIlCSlu7CDOpXE8C36eFPIn5TauD_8HeTlTPRfKiT9ms9bsmzx9Jb_pXMIvKx7OaH--Ce1GQ_LGnfaC1vrskxhq4lHw_Kv_x1iSgKwFhgxa3AzaWXTA2zIbmsaxx8SJtygZ-xbJhKHCtOyGRxWcVMJA4zC8KHRL16n56Ko7qx09sXPco-p9GZL5HkdTgGlJtgJEl2jTRMWakbPcXmxZwN1yKbbz5kFJSDZjb1OlIp_iNL2NlZ76RHeuoBESQwdiXDCCmGZU5HS7m3DO5hSiNIi01n55qof6wnBn0bZTRICn5ugYNfP7wxJ4k7QoTqqdocaT25Xps43WaiRTOYRkKEnVnQGmDXrqXGXpM_C8cYwrUKEJ2kqhmkqTOmcf2cf92rmxjqeRm4Qw5BLn6yCL-95B1o1zd1AhltIoYWlrZ64Ym2PXhEm179_NAeySJ0ULW2tQsLGTMVfooGbRjuDLfyhTmiaTjPpHTqNRTjp9M0ekCDW8u5fJj_3uzh0p60uksnyQH336-UeFTHIU0srgzOy9t8x5U6oyKjTWqYpIQB6ksG1hrhU7tScBSQzhirhZ2CxE2kpvUM2hRf6h9CacYwE6er-knhdCZ7Rbgi26EV9obXEpBsjXtieBBzs8jc193Itwh-YRhcL1PODBFH8UcQ28R6dNMgr7qHiZy5ZmDBPz2wnNkGUDpdY97B7YbIgy16z6tTFH8cf5KrWgNZVN3FUNIDSPlMDSt_1OgE0f5Uxcaj8fTvja7zqd4V43bQlZrgLH4KDwaRrHz2VtgS4-eRIh2i524IDg8wqisvnxjuJ_0G00?></g></svg>